Coordinates
nRows=235
nColumns=2
inDegrees=yes
endheader
time	ankle_angle_r	
4.09173	 -5.393107	
4.125	 -5.387053	
4.15827	 -5.384560	
4.19153	 -5.387787	
4.2248	 -5.394813	
4.25806	 -5.401368	
4.29133	 -5.404269	
4.3246	 -5.401808	
4.35786	 -5.395989	
4.39113	 -5.391159	
4.4244	 -5.387582	
4.45766	 -5.384340	
4.49093	 -5.383588	
4.52419	 -5.385064	
4.55746	 -5.385417	
4.59073	 -5.382678	
4.62399	 -5.375225	
4.65726	 -5.362403	
4.69052	 -5.347978	
4.72379	 -5.337911	
4.75706	 -5.335224	
4.79032	 -5.336279	
4.82359	 -5.332664	
4.85685	 -5.323345	
4.89012	 -5.318576	
4.92339	 -5.324544	
4.95665	 -5.335207	
4.98992	 -5.341277	
5.02319	 -5.338537	
5.05645	 -5.329795	
5.08972	 -5.320449	
5.12298	 -5.311686	
5.15625	 -5.305004	
5.18952	 -5.308626	
5.22278	 -5.326824	
5.25605	 -5.351620	
5.28931	 -5.372025	
5.32258	 -5.380219	
5.35585	 -5.374760	
5.38911	 -5.365565	
5.42238	 -5.363366	
5.45565	 -5.367564	
5.48891	 -5.373315	
5.52218	 -5.378869	
5.55544	 -5.383669	
5.58871	 -5.387949	
5.62198	 -5.391340	
5.65524	 -5.393618	
5.68851	 -5.397693	
5.72177	 -5.403532	
5.75504	 -5.406726	
5.78831	 -5.406096	
5.82157	 -5.403004	
5.85484	 -5.400536	
5.8881	 -5.403028	
5.92137	 -5.408545	
5.95464	 -5.411641	
5.9879	 -5.412128	
6.02117	 -5.413444	
6.05444	 -5.417944	
6.0877	 -5.423853	
6.12097	 -5.425925	
6.15423	 -5.421003	
6.1875	 -5.410643	
6.22077	 -5.401151	
6.25403	 -5.399955	
6.2873	 -5.404345	
6.32056	 -5.401880	
6.35383	 -5.388277	
6.3871	 -5.371885	
6.42036	 -5.361914	
6.45363	 -5.362757	
6.4869	 -5.371864	
6.52016	 -5.381435	
6.55343	 -5.386518	
6.58669	 -5.385458	
6.61996	 -5.377499	
6.65323	 -5.366003	
6.68649	 -5.355112	
6.71976	 -5.346193	
6.75302	 -5.343245	
6.78629	 -5.349201	
6.81956	 -5.358834	
6.85282	 -5.366679	
6.88609	 -5.371151	
6.91935	 -5.370838	
6.95262	 -5.367291	
6.98589	 -5.363941	
7.01915	 -5.364237	
7.05242	 -5.372562	
7.08569	 -5.385554	
7.11895	 -5.392043	
7.15222	 -5.388614	
7.18548	 -5.381068	
7.21875	 -5.374531	
7.25202	 -5.372261	
7.28528	 -5.374575	
7.31855	 -5.378149	
7.35181	 -5.381582	
7.38508	 -5.383639	
7.41835	 -5.380938	
7.45161	 -5.376442	
7.48488	 -5.376289	
7.51815	 -5.377272	
7.55141	 -5.374194	
7.58468	 -5.369652	
7.61794	 -5.367545	
7.65121	 -5.369157	
7.68448	 -5.371041	
7.71774	 -5.367034	
7.75101	 -5.361875	
7.78427	 -5.364511	
7.81754	 -5.368744	
7.85081	 -5.364580	
7.88407	 -5.354641	
7.91734	 -5.347004	
7.9506	 -5.347309	
7.98387	 -5.354109	
8.01714	 -5.357930	
8.0504	 -5.355625	
8.08367	 -5.357249	
8.11694	 -5.370700	
8.1502	 -5.390360	
8.18347	 -5.404176	
8.21673	 -5.406770	
8.25	 -5.403275	
8.28327	 -5.401171	
8.31653	 -5.402899	
8.3498	 -5.405221	
8.38306	 -5.402786	
8.41633	 -5.395914	
8.4496	 -5.391218	
8.48286	 -5.391735	
8.51613	 -5.394807	
8.5494	 -5.397377	
8.58266	 -5.396862	
8.61593	 -5.393236	
8.64919	 -5.390340	
8.68246	 -5.390354	
8.71573	 -5.392610	
8.74899	 -5.395949	
8.78226	 -5.397500	
8.81552	 -5.396804	
8.84879	 -5.397419	
8.88206	 -5.399245	
8.91532	 -5.399927	
8.94859	 -5.399332	
8.98185	 -5.395190	
9.01512	 -5.385582	
9.04839	 -5.374196	
9.08165	 -5.364786	
9.11492	 -5.358411	
9.14819	 -5.356176	
9.18145	 -5.356961	
9.21472	 -5.357277	
9.24798	 -5.353556	
9.28125	 -5.342898	
9.31452	 -5.330464	
9.34778	 -5.327478	
9.38105	 -5.332107	
9.41431	 -5.331519	
9.44758	 -5.323537	
9.48085	 -5.316230	
9.51411	 -5.315395	
9.54738	 -5.321722	
9.58065	 -5.330126	
9.61391	 -5.334463	
9.64718	 -5.335011	
9.68044	 -5.335784	
9.71371	 -5.340299	
9.74698	 -5.350411	
9.78024	 -5.362773	
9.81351	 -5.372831	
9.84677	 -5.381048	
9.88004	 -5.386619	
9.91331	 -5.386930	
9.94657	 -5.385384	
9.97984	 -5.385636	
10.0131	 -5.387081	
10.0464	 -5.390872	
10.0796	 -5.396340	
10.1129	 -5.398425	
10.1462	 -5.396432	
10.1794	 -5.393876	
10.2127	 -5.392107	
10.246	 -5.390586	
10.2792	 -5.388938	
10.3125	 -5.389228	
10.3458	 -5.393758	
10.379	 -5.400535	
10.4123	 -5.407499	
10.4456	 -5.414273	
10.4788	 -5.419224	
10.5121	 -5.422909	
10.5454	 -5.424697	
10.5786	 -5.417924	
10.6119	 -5.401544	
10.6452	 -5.383409	
10.6784	 -5.367228	
10.7117	 -5.354738	
10.745	 -5.353293	
10.7782	 -5.364876	
10.8115	 -5.378079	
10.8448	 -5.378573	
10.878	 -5.364177	
10.9113	 -5.345893	
10.9446	 -5.332009	
10.9778	 -5.323369	
11.0111	 -5.323203	
11.0444	 -5.333144	
11.0776	 -5.346783	
11.1109	 -5.358276	
11.1442	 -5.367300	
11.1774	 -5.374338	
11.2107	 -5.380788	
11.244	 -5.389976	
11.2772	 -5.402395	
11.3105	 -5.416169	
11.3437	 -5.429553	
11.377	 -5.438643	
11.4103	 -5.440900	
11.4435	 -5.438271	
11.4768	 -5.432205	
11.5101	 -5.424767	
11.5433	 -5.421009	
11.5766	 -5.422493	
11.6099	 -5.426151	
11.6431	 -5.428757	
11.6764	 -5.428753	
11.7097	 -5.429007	
11.7429	 -5.433154	
11.7762	 -5.438008	
11.8095	 -5.439778	
11.8427	 -5.441850	
11.876	 -5.447398	
